<?xml version="1.0" encoding="UTF-8"?>
<svg id="Layer_1" data-name="Layer 1" xmlns="http://www.w3.org/2000/svg" viewBox="0 0 120 107">
  <defs>
    <style>
      .cls-1 {
        fill: #fff;
      }
    </style>
  </defs>
  <path class="cls-1" d="M120,0v107H0V0h120ZM61.24,2.99v7.96c2.24.13,1.66-5.07,1.36-6.6-.18-.92-.23-1.64-1.36-1.36ZM44.19,10.11c-1.74-.69-2.4-.03-1.71,1.71.1.25,3.58,3.64,3.82,3.77,1.9,1,2.65.25,1.65-1.65-.12-.24-3.52-3.72-3.77-3.82ZM79.17,9.96l-2,.34-4.97,5.62c.93.14,1.47,0,2.26-.47.49-.29,5.22-5.06,4.7-5.5ZM65.08,15.1c-5.58-2.03-14.34,1.74-16.73,7.21-7.16,16.43,15.23,27,23.82,14.14,3.71-5.55,2.81-15.72-3.16-19.31-.63-.38-3.62-1.92-3.93-2.04ZM42.32,28.86c.27-2.47-5.17-2.38-6.64-2.01-.76.19-1.35,1.8.89,2.04,1.8.19,3.9-.19,5.75-.03ZM86.14,26.87h-6.97v1.99h6.97v-1.99ZM48.3,40.81c-.3-.3-1.45.06-2,.34-.23.12-3.51,3.4-3.63,3.63-1,1.9-.25,2.65,1.65,1.65.23-.12,3.51-3.4,3.63-3.63.28-.54.64-1.69.34-2ZM79.17,46.78c.52-.44-4.21-5.21-4.7-5.5-.79-.47-1.34-.61-2.26-.47l4.97,5.62,2,.34ZM61.24,44.79v7.96c2.24.13,1.66-5.07,1.36-6.6-.18-.92-.23-1.64-1.36-1.36ZM7.47,101.53h108.55c.09-2.39-1.11-5.28-2.06-7.55-4.49-10.8-10.39-24.48-15.82-34.68-.32-.6-.17-1.94-1.42-2.54l-70.39.29c-1.36,2.19-1.96,4.97-3,7.23-5.13,11.09-10.48,22.31-14.93,33.85-.25.64-1.72,1.24-.94,3.39Z"/>
  <path d="M7.47,101.53c-.78-2.15.69-2.75.94-3.39,4.45-11.54,9.8-22.76,14.93-33.85,1.04-2.26,1.65-5.04,3-7.23l70.39-.29c1.25.59,1.1,1.93,1.42,2.54,5.42,10.2,11.33,23.88,15.82,34.68.94,2.27,2.14,5.16,2.06,7.55H7.47ZM48.3,58.73h-20.91c-.85,3.82-3.92,7-3.98,10.95h23.9c-.25-3.81,1.69-6.98,1-10.95ZM49.29,69.67h24.9c-1.33-3.62-.63-7.44-2.28-10.98l-21.63.03c.6,3.94-1.59,7.02-.99,10.95ZM96.1,58.73h-21.91c1.03,3.52.25,8.1,2.24,10.95h24.15c-1.08-3.68-2.83-7.38-4.48-10.95ZM46.8,71.67h-25.39c.6,1.64-.69,1.85-.94,2.4-1.2,2.74-2.08,5.79-3.22,8.39-.1.22-1.44.47-.83,2.15h28.88c-.71-2.2.77-4.11.97-5.75.29-2.37-.38-4.84.53-7.19ZM47.3,84.6h28.88c-.25-1.65-1.61-12.86-2.28-12.97l-25.14.25c-.91.63-.31,4.57-.49,5.98-.25,1.94-1.72,4.21-.97,6.75ZM102.07,71.67h-25.89c.68,4.31,1.04,8.61,1.99,12.94h28.88c.63-1.73-.77-1.9-.95-2.38-1.32-3.56-2.74-7-4.03-10.56ZM44.81,86.6H15.68c-2.62,3.39-3.5,7.74-5.26,11.57-.29.64-1.34.03-.96,1.37h33.86c-.75-2.53.72-4.82.97-6.75.26-2.03-.3-4.14.52-6.19ZM76.18,86.6h-29.88c.62,4.59-1.61,8.35-1,12.94h32.86c.69-2.22-.74-4.07-.97-5.75-.34-2.46.4-4.75-1.02-7.19ZM108.3,86.6h-30.12c.89,4.31,1.45,8.6,1.99,12.94h33.86l-5.73-12.94Z"/>
  <path d="M65.08,15.1c.31.11,3.3,1.66,3.93,2.04,5.97,3.58,6.87,13.76,3.16,19.31-8.59,12.86-30.98,2.29-23.82-14.14,2.38-5.47,11.15-9.24,16.73-7.21ZM65.08,17.09c-1.27-.47-6.84-.29-8.28.12-6.2,1.76-8.64,9.47-7.49,15.29,1.21,1.49,2.03,3.35,3.75,4.8,4.7,3.97,11.97,4.1,16.42-.45,4.61-4.72,4.34-12.14-.23-16.71-.31-.31-2.01-1.96-2.18-2.07-.4-.26-1.08-.03-1.43-.19-.48-.22-.46-.75-.55-.79Z"/>
  <path d="M44.19,10.11c.25.1,3.64,3.58,3.77,3.82,1,1.9.25,2.65-1.65,1.65-.24-.12-3.72-3.52-3.82-3.77-.69-1.74-.03-2.4,1.71-1.71Z"/>
  <path d="M48.3,40.81c.3.3-.06,1.45-.34,2-.12.23-3.4,3.51-3.63,3.63-1.9,1-2.65.25-1.65-1.65.12-.23,3.4-3.51,3.63-3.63.54-.28,1.69-.64,2-.34Z"/>
  <rect x="79.17" y="26.87" width="6.97" height="1.99"/>
  <path d="M42.32,28.86c-1.84-.16-3.95.22-5.75.03-2.24-.24-1.65-1.85-.89-2.04,1.46-.37,6.91-.46,6.64,2.01Z"/>
  <path d="M79.17,9.96c.52.44-4.21,5.21-4.7,5.5-.79.47-1.34.61-2.26.47l4.97-5.62,2-.34Z"/>
  <path d="M79.17,46.78l-2-.34-4.97-5.62c.93-.14,1.47,0,2.26.47.49.29,5.22,5.06,4.7,5.5Z"/>
  <path d="M61.24,2.99c1.13-.28,1.17.44,1.36,1.36.3,1.53.89,6.73-1.36,6.6V2.99Z"/>
  <path d="M61.24,44.79c1.13-.28,1.17.44,1.36,1.36.3,1.53.89,6.73-1.36,6.6v-7.96Z"/>
  <path class="cls-1" d="M108.3,86.6l5.73,12.94h-33.86c-.54-4.34-1.1-8.63-1.99-12.94h30.12Z"/>
  <path class="cls-1" d="M76.18,86.6c1.42,2.44.69,4.73,1.02,7.19.23,1.68,1.66,3.53.97,5.75h-32.86c-.61-4.59,1.61-8.35,1-12.94h29.88Z"/>
  <path class="cls-1" d="M44.81,86.6c-.83,2.05-.26,4.17-.52,6.19s-1.72,4.21-.97,6.75H9.46c-.38-1.34.67-.74.96-1.37,1.76-3.83,2.64-8.18,5.26-11.57h29.13Z"/>
  <path class="cls-1" d="M102.07,71.67c1.29,3.55,2.71,7,4.03,10.56.18.48,1.57.65.95,2.38h-28.88c-.95-4.33-1.32-8.63-1.99-12.94h25.89Z"/>
  <path class="cls-1" d="M47.3,84.6c-.75-2.53.72-4.81.97-6.75.18-1.41-.42-5.34.49-5.98l25.14-.25c.67.11,2.02,11.32,2.28,12.97h-28.88Z"/>
  <path class="cls-1" d="M46.8,71.67c-.91,2.35-.23,4.82-.53,7.19-.2,1.64-1.68,3.55-.97,5.75h-28.88c-.62-1.68.73-1.93.83-2.15,1.14-2.59,2.02-5.64,3.22-8.39.24-.55,1.54-.77.94-2.4h25.39Z"/>
  <path class="cls-1" d="M96.1,58.73c1.65,3.57,3.4,7.27,4.48,10.95h-24.15c-1.99-2.85-1.22-7.43-2.24-10.95h21.91Z"/>
  <path class="cls-1" d="M49.29,69.67c-.6-3.93,1.59-7.01.99-10.95l21.63-.03c1.65,3.53.95,7.36,2.28,10.98h-24.9Z"/>
  <path class="cls-1" d="M48.3,58.73c.69,3.97-1.24,7.14-1,10.95h-23.9c.06-3.95,3.13-7.12,3.98-10.95h20.91Z"/>
  <path class="cls-1" d="M65.08,17.09c.09.03.07.57.55.79.35.16,1.03-.07,1.43.19.17.11,1.87,1.76,2.18,2.07,4.58,4.57,4.85,12,.23,16.71-4.45,4.55-11.71,4.42-16.42.45-1.72-1.45-2.55-3.31-3.75-4.8-1.15-5.82,1.29-13.53,7.49-15.29,1.45-.41,7.02-.58,8.28-.12Z"/>
</svg>
